<svg width="190" height="35" viewBox="0 0 190 35" fill="none" xmlns="http://www.w3.org/2000/svg">
<path d="M55.28 21.52C55.28 21.872 55.28 22.176 55.28 22.432C55.296 22.688 55.32 22.96 55.352 23.248L57.008 23.488V24.328C56.816 24.424 56.552 24.52 56.216 24.616C55.896 24.712 55.552 24.808 55.184 24.904C54.832 24.984 54.48 25.048 54.128 25.096C53.776 25.16 53.464 25.208 53.192 25.24H52.376C52.216 24.872 52.12 24.504 52.088 24.136C52.056 23.768 52.032 23.32 52.016 22.792H51.896C51.816 23.112 51.68 23.424 51.488 23.728C51.296 24.016 51.048 24.28 50.744 24.52C50.456 24.744 50.112 24.928 49.712 25.072C49.312 25.216 48.864 25.288 48.368 25.288C47.84 25.288 47.352 25.208 46.904 25.048C46.456 24.888 46.064 24.664 45.728 24.376C45.392 24.088 45.128 23.744 44.936 23.344C44.744 22.928 44.648 22.464 44.648 21.952C44.648 21.232 44.784 20.64 45.056 20.176C45.328 19.712 45.752 19.336 46.328 19.048C46.92 18.744 47.672 18.52 48.584 18.376C49.512 18.232 50.632 18.128 51.944 18.064C52.072 16.688 52.016 15.68 51.776 15.04C51.536 14.4 51.016 14.08 50.216 14.08C49.72 14.08 49.264 14.16 48.848 14.32L47.72 17.2H46.664C46.536 17.008 46.408 16.792 46.28 16.552C46.168 16.296 46.056 16.032 45.944 15.76C45.848 15.472 45.76 15.184 45.68 14.896C45.616 14.608 45.568 14.328 45.536 14.056C46.144 13.64 46.928 13.312 47.888 13.072C48.848 12.832 49.864 12.712 50.936 12.712C51.848 12.712 52.592 12.816 53.168 13.024C53.744 13.216 54.192 13.488 54.512 13.84C54.848 14.176 55.08 14.576 55.208 15.04C55.336 15.504 55.4 16 55.4 16.528C55.4 17.488 55.376 18.36 55.328 19.144C55.296 19.912 55.28 20.704 55.28 21.52ZM49.88 23.368C50.216 23.368 50.504 23.304 50.744 23.176C50.984 23.048 51.184 22.896 51.344 22.72C51.52 22.544 51.648 22.352 51.728 22.144C51.824 21.936 51.896 21.752 51.944 21.592V19.192C51.192 19.208 50.576 19.256 50.096 19.336C49.616 19.416 49.24 19.552 48.968 19.744C48.696 19.92 48.504 20.152 48.392 20.44C48.296 20.712 48.248 21.048 48.248 21.448C48.248 22.056 48.392 22.528 48.68 22.864C48.968 23.2 49.368 23.368 49.88 23.368ZM64.4874 29.8H57.8634V28.864C58.4074 28.608 58.9354 28.416 59.4474 28.288V14.704L57.8634 14.512V13.576C58.1194 13.464 58.4314 13.36 58.7994 13.264C59.1834 13.168 59.5754 13.088 59.9754 13.024C60.3754 12.944 60.7594 12.88 61.1274 12.832C61.5114 12.784 61.8314 12.744 62.0874 12.712H62.9034V15.4H62.9274C63.1994 14.632 63.6234 13.992 64.1994 13.48C64.7914 12.968 65.6074 12.712 66.6474 12.712C67.3514 12.712 67.9834 12.832 68.5434 13.072C69.1194 13.296 69.5994 13.656 69.9834 14.152C70.3834 14.632 70.6874 15.256 70.8954 16.024C71.1194 16.776 71.2314 17.68 71.2314 18.736C71.2314 19.744 71.0874 20.656 70.7994 21.472C70.5274 22.288 70.1274 22.976 69.5994 23.536C69.0874 24.096 68.4554 24.528 67.7034 24.832C66.9674 25.136 66.1274 25.288 65.1834 25.288C64.6394 25.288 64.2074 25.248 63.8874 25.168C63.5834 25.104 63.2554 24.984 62.9034 24.808V28.288C63.1594 28.32 63.4154 28.376 63.6714 28.456C63.9274 28.552 64.1994 28.688 64.4874 28.864V29.8ZM65.2554 14.632C64.7114 14.632 64.2234 14.824 63.7914 15.208C63.3754 15.592 63.0794 16.184 62.9034 16.984V23.368C63.1594 23.56 63.4314 23.704 63.7194 23.8C64.0074 23.88 64.3834 23.92 64.8474 23.92C65.7594 23.92 66.4314 23.48 66.8634 22.6C67.2954 21.72 67.5114 20.432 67.5114 18.736C67.5114 17.424 67.3434 16.416 67.0074 15.712C66.6874 14.992 66.1034 14.632 65.2554 14.632ZM79.1124 29.8H72.4884V28.864C73.0324 28.608 73.5604 28.416 74.0724 28.288V14.704L72.4884 14.512V13.576C72.7444 13.464 73.0564 13.36 73.4244 13.264C73.8084 13.168 74.2004 13.088 74.6004 13.024C75.0004 12.944 75.3844 12.88 75.7524 12.832C76.1364 12.784 76.4564 12.744 76.7124 12.712H77.5284V15.4H77.5524C77.8244 14.632 78.2484 13.992 78.8244 13.48C79.4164 12.968 80.2324 12.712 81.2724 12.712C81.9764 12.712 82.6084 12.832 83.1684 13.072C83.7444 13.296 84.2244 13.656 84.6084 14.152C85.0084 14.632 85.3124 15.256 85.5204 16.024C85.7444 16.776 85.8564 17.68 85.8564 18.736C85.8564 19.744 85.7124 20.656 85.4244 21.472C85.1524 22.288 84.7524 22.976 84.2244 23.536C83.7124 24.096 83.0804 24.528 82.3284 24.832C81.5924 25.136 80.7524 25.288 79.8084 25.288C79.2644 25.288 78.8324 25.248 78.5124 25.168C78.2084 25.104 77.8804 24.984 77.5284 24.808V28.288C77.7844 28.32 78.0404 28.376 78.2964 28.456C78.5524 28.552 78.8244 28.688 79.1124 28.864V29.8ZM79.8804 14.632C79.3364 14.632 78.8484 14.824 78.4164 15.208C78.0004 15.592 77.7044 16.184 77.5284 16.984V23.368C77.7844 23.56 78.0564 23.704 78.3444 23.8C78.6324 23.88 79.0084 23.92 79.4724 23.92C80.3844 23.92 81.0564 23.48 81.4884 22.6C81.9204 21.72 82.1364 20.432 82.1364 18.736C82.1364 17.424 81.9684 16.416 81.6324 15.712C81.3124 14.992 80.7284 14.632 79.8804 14.632ZM88.1214 23.296C88.1214 22.72 88.3054 22.256 88.6734 21.904C89.0414 21.552 89.5294 21.376 90.1374 21.376C90.7454 21.376 91.2414 21.552 91.6254 21.904C92.0094 22.256 92.2014 22.72 92.2014 23.296C92.2014 23.872 92.0094 24.336 91.6254 24.688C91.2414 25.024 90.7454 25.192 90.1374 25.192C89.5294 25.192 89.0414 25.024 88.6734 24.688C88.3054 24.336 88.1214 23.872 88.1214 23.296ZM104.655 23.056C104.543 23.376 104.359 23.672 104.103 23.944C103.847 24.2 103.535 24.432 103.167 24.64C102.815 24.848 102.407 25.008 101.943 25.12C101.495 25.232 101.023 25.288 100.527 25.288C99.4709 25.288 98.5589 25.144 97.7909 24.856C97.0389 24.552 96.4149 24.128 95.9189 23.584C95.4229 23.024 95.0549 22.36 94.8149 21.592C94.5749 20.808 94.4549 19.944 94.4549 19C94.4549 16.968 95.0069 15.416 96.1109 14.344C97.2309 13.256 98.8149 12.712 100.863 12.712C101.647 12.712 102.367 12.8 103.023 12.976C103.679 13.136 104.223 13.328 104.655 13.552C104.623 13.824 104.575 14.128 104.511 14.464C104.463 14.784 104.399 15.112 104.319 15.448C104.255 15.768 104.175 16.088 104.079 16.408C103.983 16.712 103.887 16.968 103.791 17.176H102.615L101.607 14.32C101.495 14.24 101.375 14.184 101.247 14.152C101.119 14.104 100.927 14.08 100.671 14.08C100.255 14.08 99.8949 14.16 99.5909 14.32C99.2869 14.464 99.0229 14.72 98.7989 15.088C98.5909 15.456 98.4309 15.944 98.3189 16.552C98.2229 17.16 98.1749 17.912 98.1749 18.808C98.1749 19.464 98.2469 20.072 98.3909 20.632C98.5349 21.176 98.7509 21.656 99.0389 22.072C99.3429 22.472 99.7189 22.792 100.167 23.032C100.615 23.256 101.143 23.368 101.751 23.368C102.311 23.368 102.799 23.288 103.215 23.128C103.631 22.968 103.983 22.776 104.271 22.552L104.655 23.056ZM112.296 15.76C112.104 15.856 111.88 16.016 111.624 16.24C111.368 16.464 111.136 16.832 110.928 17.344V23.488C111.248 23.52 111.568 23.584 111.888 23.68C112.208 23.76 112.528 23.888 112.848 24.064V25H105.888V24.064C106.176 23.904 106.448 23.784 106.704 23.704C106.96 23.624 107.216 23.552 107.472 23.488V14.704L105.888 14.512V13.576C106.144 13.464 106.456 13.36 106.824 13.264C107.208 13.168 107.6 13.088 108 13.024C108.4 12.944 108.784 12.88 109.152 12.832C109.536 12.784 109.856 12.744 110.112 12.712H110.928V15.904H111.024C111.152 15.552 111.336 15.184 111.576 14.8C111.832 14.416 112.128 14.064 112.464 13.744C112.8 13.424 113.168 13.168 113.568 12.976C113.968 12.784 114.384 12.696 114.816 12.712C114.992 12.936 115.144 13.256 115.272 13.672C115.4 14.072 115.504 14.456 115.584 14.824V15.76H112.296ZM127.336 22.984C127.208 23.256 127 23.536 126.712 23.824C126.44 24.096 126.096 24.344 125.68 24.568C125.28 24.776 124.808 24.944 124.264 25.072C123.736 25.216 123.16 25.288 122.536 25.288C121.544 25.288 120.664 25.144 119.896 24.856C119.128 24.552 118.488 24.128 117.976 23.584C117.464 23.024 117.072 22.36 116.8 21.592C116.544 20.824 116.416 19.96 116.416 19C116.416 16.952 116.952 15.392 118.024 14.32C119.096 13.248 120.584 12.712 122.488 12.712C123.304 12.712 124.064 12.824 124.768 13.048C125.488 13.272 126.08 13.64 126.544 14.152C127.024 14.664 127.352 15.336 127.528 16.168C127.72 17 127.712 18.016 127.504 19.216H120.136C120.152 20.48 120.472 21.488 121.096 22.24C121.736 22.992 122.672 23.368 123.904 23.368C124.432 23.368 124.976 23.288 125.536 23.128C126.112 22.968 126.56 22.76 126.88 22.504L127.336 22.984ZM122.392 14.08C122.072 14.08 121.784 14.136 121.528 14.248C121.288 14.36 121.072 14.568 120.88 14.872C120.704 15.16 120.56 15.56 120.448 16.072C120.336 16.568 120.256 17.2 120.208 17.968H124.072C124.184 16.72 124.112 15.76 123.856 15.088C123.6 14.416 123.112 14.08 122.392 14.08ZM139.843 21.52C139.843 21.872 139.843 22.176 139.843 22.432C139.859 22.688 139.883 22.96 139.915 23.248L141.571 23.488V24.328C141.379 24.424 141.115 24.52 140.779 24.616C140.459 24.712 140.115 24.808 139.747 24.904C139.395 24.984 139.043 25.048 138.691 25.096C138.339 25.16 138.027 25.208 137.755 25.24H136.939C136.779 24.872 136.683 24.504 136.651 24.136C136.619 23.768 136.595 23.32 136.579 22.792H136.459C136.379 23.112 136.243 23.424 136.051 23.728C135.859 24.016 135.611 24.28 135.307 24.52C135.019 24.744 134.675 24.928 134.275 25.072C133.875 25.216 133.427 25.288 132.931 25.288C132.403 25.288 131.915 25.208 131.467 25.048C131.019 24.888 130.627 24.664 130.291 24.376C129.955 24.088 129.691 23.744 129.499 23.344C129.307 22.928 129.211 22.464 129.211 21.952C129.211 21.232 129.347 20.64 129.619 20.176C129.891 19.712 130.315 19.336 130.891 19.048C131.483 18.744 132.235 18.52 133.147 18.376C134.075 18.232 135.195 18.128 136.507 18.064C136.635 16.688 136.579 15.68 136.339 15.04C136.099 14.4 135.579 14.08 134.779 14.08C134.283 14.08 133.827 14.16 133.411 14.32L132.283 17.2H131.227C131.099 17.008 130.971 16.792 130.843 16.552C130.731 16.296 130.619 16.032 130.507 15.76C130.411 15.472 130.323 15.184 130.243 14.896C130.178 14.608 130.131 14.328 130.099 14.056C130.707 13.64 131.491 13.312 132.451 13.072C133.411 12.832 134.427 12.712 135.499 12.712C136.411 12.712 137.155 12.816 137.731 13.024C138.307 13.216 138.755 13.488 139.075 13.84C139.411 14.176 139.643 14.576 139.771 15.04C139.899 15.504 139.963 16 139.963 16.528C139.963 17.488 139.939 18.36 139.891 19.144C139.859 19.912 139.843 20.704 139.843 21.52ZM134.443 23.368C134.779 23.368 135.067 23.304 135.307 23.176C135.547 23.048 135.747 22.896 135.907 22.72C136.083 22.544 136.211 22.352 136.291 22.144C136.387 21.936 136.459 21.752 136.507 21.592V19.192C135.755 19.208 135.139 19.256 134.659 19.336C134.179 19.416 133.803 19.552 133.531 19.744C133.259 19.92 133.067 20.152 132.955 20.44C132.859 20.712 132.811 21.048 132.811 21.448C132.811 22.056 132.955 22.528 133.243 22.864C133.531 23.2 133.931 23.368 134.443 23.368ZM142.114 13.576C142.722 13.192 143.362 12.92 144.034 12.76V10.816C144.13 10.72 144.29 10.632 144.514 10.552C144.754 10.456 145.002 10.376 145.258 10.312C145.53 10.232 145.794 10.16 146.05 10.096C146.306 10.032 146.514 9.984 146.674 9.952H147.49V13H150.658V14.512H147.49V20.728C147.49 21.72 147.61 22.408 147.85 22.792C148.106 23.176 148.522 23.368 149.098 23.368C149.386 23.368 149.706 23.352 150.058 23.32C150.426 23.272 150.762 23.192 151.066 23.08L151.234 23.872C151.09 24.016 150.874 24.168 150.586 24.328C150.314 24.488 149.994 24.64 149.626 24.784C149.274 24.928 148.882 25.048 148.45 25.144C148.034 25.24 147.594 25.288 147.13 25.288C146.09 25.288 145.314 25.016 144.802 24.472C144.29 23.928 144.034 23.048 144.034 21.832V14.512H142.114V13.576ZM158.876 25H152.252V24.064C152.492 23.936 152.74 23.832 152.996 23.752C153.252 23.656 153.532 23.568 153.836 23.488V14.704L152.252 14.512V13.576C152.492 13.48 152.788 13.384 153.14 13.288C153.508 13.192 153.892 13.112 154.292 13.048C154.692 12.968 155.084 12.904 155.468 12.856C155.852 12.792 156.188 12.744 156.476 12.712H157.292V23.488C157.612 23.568 157.9 23.656 158.156 23.752C158.412 23.832 158.652 23.936 158.876 24.064V25ZM153.428 9.064C153.428 8.504 153.62 8.064 154.004 7.744C154.388 7.424 154.884 7.264 155.492 7.264C156.1 7.264 156.596 7.424 156.98 7.744C157.364 8.064 157.556 8.504 157.556 9.064C157.556 9.608 157.364 10.04 156.98 10.36C156.596 10.68 156.1 10.84 155.492 10.84C154.884 10.84 154.388 10.68 154.004 10.36C153.62 10.04 153.428 9.608 153.428 9.064ZM160.221 19C160.221 18.024 160.365 17.152 160.653 16.384C160.957 15.6 161.381 14.936 161.925 14.392C162.485 13.848 163.157 13.432 163.941 13.144C164.725 12.856 165.613 12.712 166.605 12.712C167.725 12.712 168.685 12.872 169.485 13.192C170.301 13.496 170.965 13.928 171.477 14.488C172.005 15.032 172.389 15.696 172.629 16.48C172.869 17.248 172.989 18.088 172.989 19C172.989 19.976 172.845 20.856 172.557 21.64C172.269 22.408 171.845 23.064 171.285 23.608C170.741 24.152 170.069 24.568 169.269 24.856C168.485 25.144 167.597 25.288 166.605 25.288C165.517 25.288 164.573 25.136 163.773 24.832C162.973 24.512 162.309 24.08 161.781 23.536C161.253 22.976 160.861 22.312 160.605 21.544C160.349 20.76 160.221 19.912 160.221 19ZM163.941 19C163.941 19.72 163.981 20.384 164.061 20.992C164.157 21.584 164.317 22.088 164.541 22.504C164.765 22.92 165.069 23.248 165.453 23.488C165.837 23.712 166.333 23.824 166.941 23.824C167.293 23.824 167.613 23.744 167.901 23.584C168.189 23.408 168.437 23.136 168.645 22.768C168.853 22.384 169.005 21.888 169.101 21.28C169.213 20.656 169.269 19.896 169.269 19C169.269 18.264 169.221 17.6 169.125 17.008C169.045 16.416 168.893 15.912 168.669 15.496C168.461 15.08 168.173 14.76 167.805 14.536C167.437 14.296 166.973 14.176 166.413 14.176C165.997 14.176 165.637 14.264 165.333 14.44C165.029 14.6 164.773 14.872 164.565 15.256C164.357 15.624 164.197 16.12 164.085 16.744C163.989 17.352 163.941 18.104 163.941 19ZM188.895 25H182.535V24.064C182.743 23.952 182.943 23.856 183.135 23.776C183.343 23.68 183.583 23.584 183.855 23.488V17.848C183.855 16.84 183.711 16.056 183.423 15.496C183.135 14.92 182.623 14.632 181.887 14.632C181.279 14.632 180.751 14.832 180.303 15.232C179.871 15.616 179.543 16.144 179.319 16.816V23.488C179.575 23.552 179.799 23.632 179.991 23.728C180.199 23.808 180.415 23.92 180.639 24.064V25H174.279V24.064C174.679 23.856 175.207 23.664 175.863 23.488V14.704L174.279 14.512V13.576C174.487 13.48 174.759 13.392 175.095 13.312C175.431 13.216 175.791 13.128 176.175 13.048C176.575 12.968 176.975 12.904 177.375 12.856C177.791 12.792 178.167 12.744 178.503 12.712H179.319V15.184H179.343C179.679 14.512 180.183 13.936 180.855 13.456C181.527 12.96 182.343 12.712 183.303 12.712C183.927 12.712 184.487 12.792 184.983 12.952C185.479 13.096 185.895 13.36 186.231 13.744C186.583 14.128 186.847 14.648 187.023 15.304C187.215 15.944 187.311 16.76 187.311 17.752V23.488C187.951 23.6 188.479 23.792 188.895 24.064V25Z" fill="black"/>
<circle opacity="0.7" cx="14" cy="14" r="14" fill="#0056EC"/>
<circle opacity="0.7" cx="22" cy="21" r="14" fill="#C8DBFB"/>
</svg>
