<svg width="388" height="291" fill="none" xmlns="http://www.w3.org/2000/svg"><path d="M131.87 290.235c18.395 0 33.308-1.392 33.308-3.11s-14.913-3.11-33.308-3.11c-18.394 0-33.306 1.392-33.306 3.11s14.912 3.11 33.306 3.11zM302.973 290.235c18.395 0 33.307-1.392 33.307-3.11s-14.912-3.11-33.307-3.11c-18.395 0-33.307 1.392-33.307 3.11s14.912 3.11 33.307 3.11z" fill="#C8DBFB"/><path d="M373.345 68.126a46.429 46.429 0 00-.311-1.697" stroke="#C8DBFB" stroke-linecap="round" stroke-linejoin="round"/><path d="M372.216 63.096c-5.938-20.227-24.888-18.272-42.011-18.237-18.433.034-303.78.629-303.78.629C-2.253 45.548.53 86.932 22.98 86.88c12.909-.025 17.82 24.207-4.499 24.25-13.392.026-13.822 16.997-4.817 20.399" stroke="#C8DBFB" stroke-linecap="round" stroke-linejoin="round" stroke-dasharray="3.99 3.99"/><path d="M15.318 131.969c.542.094 1.12.146 1.723.138" stroke="#C8DBFB" stroke-linecap="round" stroke-linejoin="round"/><path d="M20.557 131.323a4.133 4.133 0 01-3.378 4.763 4.134 4.134 0 01-4.765-3.376 4.134 4.134 0 013.378-4.764c2.249-.379 4.386 1.137 4.765 3.377zM377.403 69.987a4.122 4.122 0 01-4.8 3.317 4.12 4.12 0 01-3.317-4.798 4.122 4.122 0 014.8-3.317 4.122 4.122 0 013.317 4.798zM62.628 101.189c-.595 3.351-1.465 6.625-2.525 9.855-2.284 6.969-5.438 13.68-8.626 20.305-1.663 3.463-8.41 11.474-12.03 12.999.422-9.037.456-19.589-.595-28.712-1.008-8.787 2.155-15.446-1.292-23.595-.44-1.043-.897-2.085-1.354-3.127-1.714-3.877-3.412-7.77-3.946-11.949-.69-5.298.956-11.337 5.54-14.093 3.301-1.981 7.602-1.878 11.126-.319 3.525 1.56 6.351 4.41 8.497 7.607 6.006 8.924 7.092 20.45 5.205 31.029z" fill="#5193F4"/><path d="M46.6 71.926c6.747 9.527 7.333 20.623 7.919 32.278.586 11.656-2.215 23.466-7.98 33.614" stroke="#0B43A4" stroke-miterlimit="10" stroke-linecap="round" stroke-linejoin="round"/><path d="M46.315 247.645c-4.731-4.178-9.514-8.417-13.013-13.672-3.042-4.574-5.006-9.768-7.66-14.584-1.716-3.11-3.75-6.116-4.74-9.528-.991-3.411-.759-7.46 1.671-10.053 2.534-2.713 6.886-3.127 10.324-1.731 3.439 1.395 6.067 4.29 8.066 7.408a35.326 35.326 0 015.188 13.723c.672 4.411.5 8.925 1.19 13.335.637 4.109 2.025 8.055 3.765 11.819 1.577 3.412 5.584 9.502 6.601 13-2.835 1.404-9.376-7.934-11.392-9.717z" fill="#00AD9F"/><path d="M29.778 204.313c4.498 1.965 6.282 7.331 7.221 12.147 1.069 5.479.828 11.414 3.344 16.402 4.74 9.398 10.901 20.089 15.486 23.285" stroke="#00AD9F" stroke-miterlimit="10" stroke-linecap="round" stroke-linejoin="round"/><path d="M23.039 234.792c-3.921-1.551-9.17-2.189-11.686 1.197-2.102 2.834-1.017 6.857.44 10.07 1.232 2.714 2.792 5.479 5.377 6.952 1.767 1.008 3.844 1.31 5.869 1.551 5.644.672 11.323.999 17.011.982 6.584-.017 14.564 2.67 20.019 6.78-6.998-12.991-23.82-22.321-37.03-27.532z" fill="#0056EC"/><path d="M16.153 243.234c4.998.215 10.04.56 14.831 1.981 4.904 1.447 23.768 10.105 26.715 13.783" stroke="#0B43A4" stroke-miterlimit="10" stroke-linecap="round" stroke-linejoin="round"/><path d="M65.851 208.121c-5.11-7.994-13.848-13.576-23.25-14.843-6.946-.93-14.09.362-20.95-1.076-7.204-1.508-13.702-6.151-17.459-12.483-3.757-6.332-4.74-14.24-2.628-21.295 1.611-5.358 5.291-10.441 10.617-12.155 2.904-.93 6.075-.801 9.04-.095 2.74.655 5.282 1.801 7.626 3.291 5.36 3.394 9.695 8.614 12.952 14.162 2.956 5.04 10.247 12.887 15.21 17.996a276.292 276.292 0 005.024 5.022c3.396 4.239 1.801 16.437 3.818 21.476z" fill="#52D2BC"/><path d="M10.62 161.766c16.693 7.529 34.894 17.402 46.734 31.374" stroke="#00AD9F" stroke-miterlimit="10" stroke-linecap="round" stroke-linejoin="round"/><path opacity=".2" d="M58.957 191.263s-24.87-20.158-30.119-41.789c5.36 3.394 9.695 8.614 12.953 14.162 2.956 5.039 10.246 12.887 15.21 17.996a441.412 441.412 0 011.956 9.631zM60.103 111.044c-2.284 6.969-5.438 13.68-8.626 20.305-1.663 3.463-8.41 11.474-12.03 12.999.422-9.037.456-19.589-.595-28.712-1.008-8.787 2.155-15.446-1.292-23.595-.44-1.043-.897-2.085-1.354-3.127.32.103.63.215.931.344 5.67 2.43 8.29 8.425 8.773 14.249.405 4.806-.465 9.622-1.112 14.403-.301 2.205-.543 4.462-.069 6.625.009.025.018.043.018.069.594 2.575 4.36 2.429 4.843-.181l1.508-8.003c.448-2.395.94-4.902 2.904-6.573.776-.663 1.775-1.077 2.792-1.043 1.62.061 2.637 1.008 3.31 2.24z" fill="#5275A0"/><path d="M58.957 186.215c-3.93-20.512-5.998-23.673-4.266-28.816 2.206-6.556.965-13.137 3.042-19.736 2.077-6.59 3.49-13.68 1.819-20.39-.526-2.12-1.603-4.428-4.154-4.523-1.026-.035-2.017.379-2.792 1.042-1.965 1.671-2.456 4.178-2.904 6.573l-1.5 8.003c-.491 2.602-4.248 2.757-4.843.172-.009-.026-.009-.043-.017-.069-.483-2.162-.233-4.419.06-6.624.646-4.79 1.517-9.597 1.12-14.412-.482-5.824-3.102-11.82-8.78-14.24a10.026 10.026 0 00-6.404-.508c-5.92 1.516-7.454 7.305-6.584 12.241.612 3.48 2.241 6.676 3.715 9.881 3.602 7.83.956 15.015 1.456 23.621 1.379 23.767 31.032 47.785 31.032 47.785z" fill="#7EE8D4"/><path d="M32.535 98.906c2.922 14.593 5.878 29.29 11.548 43.056 1.663 4.031 2.473 9.347 12.1 20.322" stroke="#00AD9F" stroke-miterlimit="10" stroke-linecap="round" stroke-linejoin="round"/><path d="M146.503 102.645c-3.025-3.454-5.817-6.97-8.755-10.355-1.905-2.196-3.87-4.341-6.007-6.375a60.617 60.617 0 00-3.309-2.954c-6.825-5.634-14.443-10.312-22.587-13.792-4.912-2.102-10.1-3.834-14.27-7.185-4.171-3.342-7.17-8.838-5.783-13.998 1.008-3.722 4.171-6.616 7.799-7.943 3.62-1.318 7.635-1.214 11.401-.405 10.514 2.266 19.295 9.82 25.267 18.754.103.155.215.319.319.483 4.378 6.676 7.437 14.102 10.1 21.665.853 2.43 1.663 4.876 2.464 7.314 1.207 3.644 4.912 11.181 3.361 14.791z" fill="#5193F4"/><path d="M98.408 48.416c11.47 2.189 19.588 9.778 28.094 17.772 8.505 7.995 14.675 18.444 17.562 29.755" stroke="#0B43A4" stroke-miterlimit="10" stroke-linecap="round" stroke-linejoin="round"/><path opacity=".2" d="M137.748 92.29a13.554 13.554 0 00.163 3.584c-2.869-.655-4.86-5.108-6.17-9.959-1.284-4.712-1.922-9.811-2.12-12.163a52.582 52.582 0 01.957-14.877c4.378 6.676 7.437 14.102 10.1 21.665a89.158 89.158 0 00-2.344 8.235c-.276 1.18-.492 2.344-.586 3.515z" fill="#5275A0"/><path d="M157.646 50.898c-.974 4.298-3.568 8.011-5.86 11.784a90.888 90.888 0 00-3.387 6.09 92.753 92.753 0 00-7.635 20.865c-.56 2.369-.871 4.695-.422 7.098-5.654-1.292-7.911-17.358-8.291-22.13-.68-8.598.785-17.41 4.326-25.284 1.543-3.454 3.542-6.849 6.619-9.063 3.068-2.213 7.411-2.989 10.66-1.06 1.956 1.164 3.214 3.093 3.826 5.29.603 2.05.629 4.333.164 6.41z" fill="#52D2BC"/><path d="M138.187 91.997c-3.516-8.83-1.379-27.514 4.257-39.256 1.698-3.54 4.12-6.857 7.506-8.83" stroke="#00AD9F" stroke-miterlimit="10" stroke-linecap="round" stroke-linejoin="round"/><path opacity=".2" d="M157.646 50.898c-.974 4.3-3.568 8.012-5.86 11.785a90.888 90.888 0 00-3.387 6.09c-1.542-2.601-2.602-5.47-2.895-8.467-.474-5.005 1.439-10.364 5.506-13.31 1.905-1.37 4.137-2.154 6.472-2.507.603 2.05.629 4.333.164 6.41z" fill="#5275A0"/><path d="M190.263 88.293a18.184 18.184 0 01-1.465 4.756c-2.507 5.427-7.773 10.079-15.658 13.869 0 0-.439-8.58-.534-10.88-.388-9.838-11.065-15.274-17.821-22.45-3.439-3.66-6.05-8.278-6.532-13.283-.474-5.005 1.439-10.364 5.506-13.31 3.413-2.463 7.877-2.997 12.082-2.679 6.774.543 13.607 3.377 17.821 8.666.181.199.336.414.491.62 2.577 3.524 3.904 7.814 4.878 12.087 1.689 7.4 2.447 15.101 1.232 22.604z" fill="#00AD9F"/><path d="M156.672 52.268c7.394 3.824 14.796 8.442 19.097 15.557 6.006 9.933 4.696 22.855.069 33.494" stroke="#00AD9F" stroke-miterlimit="10" stroke-linecap="round" stroke-linejoin="round"/><path d="M313.926 151.739c4.714-7.753 2.301-17.729 3.947-26.645 1.258-6.857 5.076-13.214 10.539-17.556 3.43-2.722 8.247-4.669 12.117-2.627.835.439 1.835 1.068 2.645.568.483-.293.672-.896.793-1.447.982-4.816-1.336-10.08.56-14.619 1.017-2.447 3.128-4.273 5.36-5.694a29.223 29.223 0 0114.452-4.531c1.353-.052 2.766 0 3.981.603 2.189 1.094 3.189 3.825 2.896 6.254-.293 2.43-1.638 4.608-3.12 6.555-4.946 6.47-12.194 12.052-13.15 20.133-.121 1.016-.121 2.101.344 3.015.457.887 1.302 1.516 1.776 2.386 1.525 2.8-1.422 5.978-4.292 7.348a24.849 24.849 0 01-8.376 2.317c-1.999.19-4.249.233-5.61 1.706-2.508 2.722.37 7.073-.155 10.734-.328 2.283-1.982 4.126-3.654 5.728a66.09 66.09 0 01-10.083 7.952c-2.93 1.878-6.023 3.531-8.617 5.84-2.594 2.309-4.688 5.436-4.861 8.908" fill="#52D2BC"/><path d="M320.131 144.193c.767-3.756 2.516-7.236 4.248-10.656 2.706-5.35 5.464-10.777 9.548-15.162 3.103-3.334 6.886-5.97 10.04-9.252a34.509 34.509 0 005.67-7.874c.819-1.559 1.526-3.196 2.62-4.565 1.31-1.628 3.094-2.791 4.654-4.187a19.885 19.885 0 004.929-6.797" stroke="#00AD9F" stroke-miterlimit="10" stroke-linecap="round" stroke-linejoin="round"/><path d="M381.583 157.115c-1.06 4.083-2.637 8.123-5.343 11.362-1.87 2.231-4.197 3.997-6.739 5.436a38.08 38.08 0 01-4.076 1.99 48.948 48.948 0 01-17.037 3.773c-8.514.319-17.27-1.559-25.439.87-3.749 1.111-7.205 3.136-10.04 5.815a24.455 24.455 0 00-4.507 5.694l1.112-7.064c2.059-7.598 4.162-15.334 8.367-21.993 2.715-4.315 6.24-8.071 9.988-11.526 5.989-5.53 12.634-10.398 19.967-13.955 5.929-2.878 12.513-4.902 19.062-4.101 6.541.793 12.97 4.928 15.012 11.19 1.31 4.023.741 8.417-.327 12.509z" fill="#5193F4"/><path d="M315.081 179.616c6.256-9.252 15.623-16.368 26.223-19.9 6.601-2.205 13.59-3.041 20.277-4.97 6.688-1.93 13.366-5.203 17.287-10.958" stroke="#0B43A4" stroke-miterlimit="10" stroke-linecap="round" stroke-linejoin="round"/><path d="M319.2 247.472c.371-9.501 5.283-18.271 11.255-25.68 4.972-6.176 10.978-11.827 18.398-14.644 2.327-.879 4.878-1.473 7.291-.879 2.413.594 4.601 2.653 4.645 5.143.034 2.093-1.371 3.928-2.853 5.41-4.877 4.884-11.177 8.011-17.089 11.578-10.151 6.133-19.803 14.317-23.827 25.473" fill="#52D2BC"/><path d="M322.957 239.159c6.205-13.834 22.268-26.205 32.859-27.747" stroke="#00AD9F" stroke-miterlimit="10" stroke-linecap="round" stroke-linejoin="round"/><path d="M315.322 255.027c-.086-1.593 5.11-5.754 6.282-6.814 6.489-5.883 14.193-10.208 22.337-12.758 3.292-1.034 6.799-1.783 10.091-.991 3.301.793 6.326 3.498 6.644 7.047.311 3.446-1.999 6.823-4.955 8.485-2.956 1.672-6.403 1.921-9.694 1.732-5.085-.293-10.083-1.559-15.185-1.525-5.11.043-12.28.56-15.52 4.824z" fill="#00AD9F"/><path d="M320.613 250.195c10.436-5.652 26.215-9.33 37.676-7.943" stroke="#00AD9F" stroke-miterlimit="10" stroke-linecap="round" stroke-linejoin="round"/><path opacity=".2" d="M190.263 88.293a18.184 18.184 0 01-1.465 4.756c-3.662-7.762-6.885-17.893-7.661-30.332-.206-3.368.733-6.831 2.525-9.735.181.199.336.414.492.62 2.576 3.524 3.903 7.814 4.877 12.087 1.689 7.4 2.447 15.101 1.232 22.604z" fill="#5275A0"/><path d="M226.363 87.854c7.79-2.765 15.89-4.97 22.974-9.243 2.146-1.293 4.205-2.791 5.731-4.773 1.517-1.981 2.456-4.514 2.12-6.995-.345-2.515-1.956-4.927-1.414-7.417.362-1.637 1.586-2.912 2.525-4.307 2.232-3.3 2.896-7.615 1.767-11.44-1.224-4.1-4.3-7.392-6.05-11.294a18.864 18.864 0 01-1.456-10.251c-6.541.086-12.504 3.661-18.933 4.85-4.92.913-10.031.413-14.908 1.533-8.885 2.042-16.158 9.864-17.537 18.875-4.119-.707-8.557.775-11.427 3.824-3.042 3.24-4.757 7.848-4.481 12.285 2.008 32.244 20.475 49.059 20.475 49.059s17.641-23.647 20.614-24.706z" fill="#7EE8D4"/><path d="M208.929 87.63c-.81-7.951 1.974-15.816 5.162-23.147 3.111-7.142 6.696-14.145 11.505-20.279 4.808-6.133 10.918-11.388 18.131-14.352M215.866 34.737c-.818 7.09-.241 15.635 1.603 22.527M218.796 54.723c8.101-5.195 20.562-8.348 30.17-7.797M198.984 56.05c9.756 4.108 10.152 18.443 10.419 22.518M212.057 69.454c7.463-5.35 18.244-6.961 26.181-4.962M232.421 31.05c-2.241 2.765-2.801 6.056-2.577 8.339M231.964 37.364c3.438-1.757 8.04-2.162 12.961-.93" stroke="#00AD9F" stroke-miterlimit="10" stroke-linecap="round" stroke-linejoin="round"/><path d="M40.084 52.965c.914-.052 7.17-4.678 9.575-6.237.68-.44 1.361-.896 1.835-1.55.474-.655.698-1.551.353-2.283-.43-.905-1.137-1.81-2.92-1.81-3.112.01-4.198 1.034-5.714 2.594-5.007 5.177-3.129 9.286-3.129 9.286zM68.118 71.633c2.723 1.223 5.627 2.438 8.591 2.059 1.146-.147 2.405-.672 2.784-1.758.327-.93-.12-2.007-.862-2.662-.741-.654-1.715-.973-2.68-1.206-3.62-.887-8.712-.396-12.297.62-.009 0 2.835 2.214 4.464 2.947zM86.042 31.437c-1.215-.766-2.56-1.792-2.55-3.23 0-1.439 1.499-2.533 2.938-2.541 1.439-.009 2.775.775 3.86 1.731 4.576 4.023 4.008 8.606 4.008 8.606s-6.903-3.713-8.256-4.566zM89.653 19.179c-1.069-.457-2.163-1.008-2.792-1.99-.302-.474-.474-1.077-.293-1.61.31-.888.87-1.69 3.12-1.285 7.109 1.293 8.66 6.16 8.66 6.16s-6.808-.465-8.695-1.275zM110.482 29.947c2.852-.25 5.799-1.663 7.592-3.894.68-.844 1.301-1.766 1.525-2.825.224-1.06-.017-2.266-.836-2.972-1-.862-2.585-.724-3.68 0-1.103.723-1.809 1.912-2.378 3.092-.758 1.585-2.223 6.599-2.223 6.599z" fill="#4A49CA"/><path d="M59.56 133.89l-20.717-18.254c-3.68-3.239-7.437-6.582-9.763-10.898-5.007-9.278-2.12-21.33 4.645-29.418 6.764-8.09 16.675-12.862 26.637-16.333 9.953-3.472 20.32-5.91 29.808-10.51 5.955-2.886 11.935-7.176 13.573-13.585.982-3.85.155-8.132-2.189-11.337-2.344-3.213-6.17-5.298-10.143-5.53M115.307 23.331c-1.887 5.789-9.238 9.312-12.59 14.335" stroke="#0B43A4" stroke-miterlimit="10" stroke-linecap="round" stroke-linejoin="round"/><path d="M88.92 29.99c1.448 1.525 3.18 2.791 4.447 4.471 2.671 3.558 2.887 9.338-1.06 12.922M51.735 62.415c6.093 4.695 14.099 7.822 21.786 8.115M37.792 70.96c-2.81-8.269.25-18.176 7.23-23.422" stroke="#0B43A4" stroke-miterlimit="10" stroke-linecap="round" stroke-linejoin="round"/><path d="M260.48 36.02c-.328-1.025-.311-2.283.439-3.05.603-.602 1.603-.878 2.387-.533 6.058 2.662 5.403 12.112 5.403 12.112s-5.739-.827-8.229-8.529zM260.333 53.723c-3.921 7.081 10.005 6.539 15.029 2.37 0 0-11.651-8.469-15.029-2.37zM277.948 36.563c-.948-1.292-1.284-3.222-.25-4.454.767-.913 2.102-1.197 3.274-.973 1.172.224 2.93 1.31 3.68 2.24 4.585 5.702 2.43 11.276 2.43 11.276s-7.592-5.97-9.134-8.09zM333.255 54.093c-.336-1.102-.258-2.446.595-3.221.543-.491 1.31-.664 2.034-.612.723.052 1.422.319 2.085.62 1.422.646 2.525 1.783 3.206 3.188 1.723 3.549.551 7.934.551 7.934s-7.626-5.16-8.471-7.909zM315.856 67.084c-2.464-2.162-6.23-2.8-9.238-1.482-.767.336-1.491.81-1.973 1.482-1.103 1.525-.715 3.748.431 5.238 1.137 1.49 2.869 2.395 4.584 3.17 3.103 1.404 7.911 1.688 11.212 2.533-.009-.009-.017-6.556-5.016-10.94z" fill="#4A49CA"/><path d="M264.823 37.545c2.051 6.702 7.85 11.767 14.305 14.498 6.455 2.74 13.564 3.463 20.57 3.911 6.998.457 14.081.68 20.846 2.516 6.593 1.791 13.168 5.513 15.995 11.733 3.447 7.572.396 16.617-4.447 23.388-4.835 6.762-11.35 12.215-16.029 19.09-2.146 3.153-3.947 6.857-3.507 10.647.577 5.057 4.843 8.778 8.798 11.983M280.955 35.081c4.636 5.126 8.342 13.146 9.247 20.003" stroke="#0B43A4" stroke-miterlimit="10" stroke-linecap="round" stroke-linejoin="round"/><path d="M265.357 54.895c2.654.706 5.343 1.412 8.084 1.421 2.74.009 5.92-1.516 7.893-3.42M337.797 54.507c2.482 2.395 3.998 5.78 4.128 9.226.129 3.454-1.784 7.633-4.085 10.208M311.797 70.168c4.964 4.566 9.282 8.261 14.797 12.138 2.516 1.775 7.514 4.04 9.738 3.454" stroke="#0B43A4" stroke-miterlimit="10" stroke-linecap="round" stroke-linejoin="round"/><path opacity=".2" d="M369.503 173.913a38.002 38.002 0 01-4.077 1.99 48.938 48.938 0 01-17.037 3.773c-8.514.319-17.269-1.559-25.439.87-3.748 1.111-7.204 3.136-10.039 5.815-.285.138-.569.293-.853.457-.681-5.764 13.693-13.275 18.062-15.231 7.885-3.532 16.675-5.1 25.293-4.411 3.774.302 7.644 1.043 10.755 3.188a11.52 11.52 0 013.335 3.549z" fill="#5275A0"/><path d="M355.402 170.622c3.775.302 7.644 1.043 10.755 3.188 3.111 2.145 5.309 5.978 4.585 9.691-.845 4.324-5.317 7.141-9.695 7.667-4.378.534-8.747-.672-13.064-1.559a93.017 93.017 0 00-29.111-1.327c-2.421.267-4.713.749-6.825 1.99-.68-5.763 13.702-13.275 18.071-15.231 7.885-3.54 16.675-5.108 25.284-4.419z" fill="#52D2BC"/><path d="M315.787 186.637c7.136-6.272 25.465-10.527 38.426-9.158 3.904.414 7.842 1.577 10.841 4.11" stroke="#00AD9F" stroke-miterlimit="10" stroke-linecap="round" stroke-linejoin="round"/><path d="M302.456 116.17l69.708-.147c8.178-.017 14.822 6.599 14.839 14.774.018 8.175-6.601 14.817-14.779 14.834l-47.681.095M91.549 167.331l-48.75.104a8.354 8.354 0 00-8.342 8.373c.009 4.617 3.757 8.347 8.377 8.339l14.21-.026" stroke="#0B43A4" stroke-miterlimit="10" stroke-linecap="round" stroke-linejoin="round" stroke-dasharray="4 4"/><path d="M13.74 205.063c-16.7.034-17.045 24.939 4.197 24.887 21.251-.043 300.005-.62 313.147-.646 13.141-.026 14.529-20.528-1.715-20.494-32.342.069-33.411-15.351-15.46-15.385" stroke="#C8DBFB" stroke-miterlimit="10" stroke-linecap="round" stroke-linejoin="round" stroke-dasharray="4 4"/><path d="M17.644 204.374a4.135 4.135 0 01-3.378 4.764 4.136 4.136 0 01-4.765-3.377 4.134 4.134 0 013.378-4.764c2.249-.379 4.386 1.129 4.765 3.377z" fill="#5193F4"/><path d="M321.923 193.537a4.135 4.135 0 01-3.378 4.764 4.135 4.135 0 01-4.765-3.377 4.133 4.133 0 013.378-4.764 4.141 4.141 0 014.765 3.377z" fill="#0B43A4"/><path opacity=".2" d="M326.413 265.537l-259.295.534c-3.456.009-6.274-2.791-6.274-6.245l-.353-171.714c-.009-3.454 2.792-6.271 6.248-6.271l259.295-.534c3.455-.009 6.273 2.791 6.273 6.245l.354 171.714a6.258 6.258 0 01-6.248 6.271z" fill="#5275A0"/><path d="M321.337 262.255l-259.295.534c-3.456.009-6.273-2.791-6.273-6.245l-.354-171.713c-.008-3.455 2.792-6.272 6.248-6.272l259.295-.534c3.456-.008 6.274 2.791 6.274 6.246l.353 171.713a6.262 6.262 0 01-6.248 6.271z" fill="#fff"/><path d="M320.536 78.016l-258.183.534a6.827 6.827 0 00-6.808 6.832l.008 5.926 271.826-.56-.009-5.926a6.822 6.822 0 00-6.834-6.806z" fill="#0056EC"/><path d="M62.663 262.789l39.011-.078-.353-171.497-45.828.094.336 164.693c.008 3.756 3.068 6.797 6.834 6.788z" fill="#C8DBFB"/><path d="M321.034 79.739a4.551 4.551 0 014.542 4.531l.353 171.713a4.501 4.501 0 01-1.327 3.214 4.48 4.48 0 01-3.206 1.335l-259.303.534a4.55 4.55 0 01-4.542-4.531l-.353-171.713a4.5 4.5 0 011.327-3.214 4.477 4.477 0 013.206-1.335l259.286-.534h.017zm0-1.723h-.017l-259.295.534c-3.456.009-6.257 2.817-6.248 6.272l.354 171.713a6.26 6.26 0 006.264 6.245h.018l259.295-.534a6.263 6.263 0 006.248-6.271l-.354-171.713a6.26 6.26 0 00-6.265-6.246z" fill="#0056EC"/><path d="M95.09 249.678l-30.066.06a2.397 2.397 0 01-2.404-2.395v-.301a2.398 2.398 0 012.395-2.404l30.067-.06a2.397 2.397 0 012.404 2.395v.301a2.392 2.392 0 01-2.395 2.404zM91.48 133.33l-25.594.052a4.406 4.406 0 01-4.413-4.394l-.051-25.585c-.009-2.429 1.965-4.402 4.395-4.41l25.594-.052a4.405 4.405 0 014.412 4.393l.052 25.585a4.4 4.4 0 01-4.395 4.411z" fill="#fff"/><path d="M201.053 209.973l-89.175.181a3.143 3.143 0 01-3.146-3.127v-.388a3.142 3.142 0 013.128-3.144l89.175-.181a3.143 3.143 0 013.146 3.127v.388a3.13 3.13 0 01-3.128 3.144zM195.899 108.408l-70.466.146a3.141 3.141 0 01-3.145-3.127v-.387a3.143 3.143 0 013.128-3.145l70.466-.146a3.142 3.142 0 013.145 3.127v.388a3.13 3.13 0 01-3.128 3.144zM307.299 179.659l-93.958.198a3.142 3.142 0 01-3.145-3.127v-.388a3.142 3.142 0 013.128-3.144l93.958-.19a3.142 3.142 0 013.145 3.127v.388a3.14 3.14 0 01-3.128 3.136zM201.078 223.748l-89.175.181a3.142 3.142 0 01-3.145-3.127v-.388a3.142 3.142 0 013.128-3.144l89.175-.181a3.143 3.143 0 013.146 3.127v.388a3.137 3.137 0 01-3.129 3.144zM201.104 237.514l-89.175.181a3.142 3.142 0 01-3.145-3.127v-.388a3.142 3.142 0 013.128-3.144l89.175-.181a3.143 3.143 0 013.146 3.127v.388a3.132 3.132 0 01-3.129 3.144zM305.386 246.49l-89.873.19a5.172 5.172 0 01-5.188-5.169l-.077-38.584a5.171 5.171 0 015.17-5.186l89.873-.19a5.173 5.173 0 015.188 5.169l.078 38.584a5.173 5.173 0 01-5.171 5.186zM70.453 84.787a2.193 2.193 0 01-2.189 2.197 2.199 2.199 0 01-2.197-2.188c0-1.215.982-2.197 2.188-2.197 1.207 0 2.198.982 2.198 2.188zM77.563 86.975a2.197 2.197 0 100-4.394 2.197 2.197 0 000 4.394zM89.058 84.753a2.193 2.193 0 01-2.189 2.196 2.199 2.199 0 01-2.197-2.188 2.193 2.193 0 014.386-.008zM118.839 105.897a6.35 6.35 0 00-5.686-6.95 6.35 6.35 0 10-1.267 12.635 6.352 6.352 0 006.953-5.685z" fill="#C8DBFB"/><path d="M93.264 138.697l-28.137.06a1.19 1.19 0 01-1.189-1.18v-.147c0-.654.526-1.18 1.18-1.188l28.137-.061c.655 0 1.18.526 1.19 1.181v.146c0 .655-.526 1.189-1.181 1.189zM93.272 144.072l-28.136.061a1.19 1.19 0 01-1.19-1.181v-.146c0-.655.526-1.18 1.181-1.189l28.137-.06c.655 0 1.18.525 1.189 1.18v.147c0 .654-.526 1.18-1.18 1.188z" fill="#fff"/><path d="M125.485 155.426l-7.954.078.06 33.321-6.868.017a4.386 4.386 0 01-4.395-4.376l-.129-61.62a4.421 4.421 0 014.421-4.436l14.779-.035.086 37.051z" fill="#C8DBFB"/><path d="M177.096 118.272v.861a4.317 4.317 0 014.317 4.307l.121 60.078a4.32 4.32 0 01-1.258 3.058 4.3 4.3 0 01-3.051 1.275l-65.726.138a4.317 4.317 0 01-4.318-4.307l-.12-60.078a4.32 4.32 0 014.308-4.333l65.718-.138.009-.861zm0 0h-.009l-65.718.138c-2.861.008-5.179 2.325-5.17 5.186l.12 60.077a5.182 5.182 0 005.18 5.169h.008l65.718-.138c2.861-.009 5.179-2.326 5.171-5.186l-.121-60.078a5.164 5.164 0 00-5.179-5.168zM286.832 167.711l-87.658-19.805a5.18 5.18 0 01-3.912-6.194l9.858-43.615a5.181 5.181 0 016.196-3.911l87.658 19.804a5.18 5.18 0 013.913 6.194l-9.859 43.616a5.175 5.175 0 01-6.196 3.911z" fill="#C8DBFB"/><path d="M117.186 286.333l-12.263.025-3.007-15.618 18.209-.034-2.939 15.627z" fill="#0056EC"/><path d="M105.311 270.732c0 1.274-.241 3.411.612 3.445.853.035.5-2.033 1.465-1.972.62.034-.284 6.788 2.051 6.952 1.603.112 1.31-3.308 1.474-5.453.112-1.448 1.964-1.163 1.982-.207.017 1.077-.052 1.792 0 3.015.086 2.042 3.223 1.499 3.111-1.223-.112-2.723-.009-4.566-.009-4.566l-10.686.009z" fill="#C8DBFB"/><path d="M102.381 280.165c-.25 0-.491-.026-.724-.078-.905-.198-1.534-.672-1.887-1.413-1.25-2.653 2.042-7.615 2.172-7.839l.172.896c-.026.052-2.895 4.316-1.767 6.702.268.569.741.922 1.457 1.077.198.043.405.06.612.06 4.42-.008 11.969-8.235 12.056-8.33.31-.37.887-.017.68.293-.353.396-8.023 8.623-12.771 8.632z" fill="#0C2340"/><path opacity=".2" d="M231.266 66.55c-17.433-.663-41.434 12.224-32.919 43.736-.181 2.662 1.413 4.566 3.111 4.049 1.697-.517.198-5.574.198-5.574 2.904-23.431 8.333-27.48 17.545-27.394l21.622-.043c5.343.784 15.055 4.523 16.511 23.277l5.386.99c.422-13.55-2.852-37.947-31.454-39.04z" fill="#5275A0"/><path d="M231.266 63.802c-17.433-.663-41.434 12.224-32.919 43.736l3.309-1.525c2.904-23.431 8.333-27.48 17.545-27.394l21.622-.043c5.343.784 15.313 5.53 16.77 24.284l5.119-.008c.431-13.56-2.844-37.956-31.446-39.05z" fill="#EF832B"/><path d="M227.698 64.32l-2.585 5.685s.31 3.204 3.456 3.135c3.145-.069 3.567-1.516 3.567-1.516l.414-6.53-4.852-.775z" fill="#FFB9A3"/><path d="M241.012 59.572c-2.947 5.212-4.257 6.84-8.117 7.624-4.999 1.017-10.6-2.352-7.997-10.656 2.12-6.77 5.342-5.728 8.488-5.47 3.145.25 10.815 2.869 7.626 8.502z" fill="#FFB9A3"/><path d="M229.275 55.455c-.784-.405-1.792-.06-2.404.577-.629.663-.931 1.645-.664 2.515-1.206.018-2.266 1.198-2.154 2.404-.827-1.921-.379-3.928-.543-5.901-.164-1.973.052-4.11 1.327-5.617.526-.62 1.198-1.094 1.913-1.473 2.715-1.447 6.136-1.49 8.894-.13.568.285 1.999 1.181 3.998.699 3.809-.922 6.033 1.654 3.749 4.066.732.267 1.542.594 1.87 1.3.086.181.129.405.017.569-.077.112-.215.172-.353.215a4.172 4.172 0 01-2.008.155c.258.216 1.672.302 2.094 1.129 1.138 2.188-3.361 1.085-4.05.861.784.147 2.835 1.784 2.18 2.912-.129.224-2.904 1.835-5.817-1.55-.681-.784-1.525-1.517-2.525-1.784-.784-.206-1.611.078-2.378.37-.56.207-1.982 1.078-2.387.56-.423-.55.155-1.42-.759-1.877z" fill="#0C2340"/><path d="M258.153 102.852c-.776 2.662-1.551 2.92-.621 3.342.94.422 1.698-1.068 1.698-1.068l4.326.861s-.974-2.808-1.654-3.144c-.681-.336-3.749.009-3.749.009zM201.656 106.013c.569 1.404.724 1.413 1.508 3.101 1.508 3.222-2.017 8.313-4.205 2.757-.604-1.525-.612-4.324-.612-4.324l3.309-1.534z" fill="#FFB9A3"/><path d="M235.437 48.287c2.956.164 6.592-1.92 8.91.75.216.25.647-.078.457-.353-2.215-3.18-6.325-.81-9.359-.896-.327 0-.318.482-.008.5zM236.626 46.66c-2.016.352-3.964-.604-5.989-.285-1.646.258-3.111 1.103-4.352 2.18-.319.275.095.818.457.585 1.74-1.145 3.412-2.136 5.584-1.973 1.577.112 2.913.586 4.481.112.396-.12.224-.689-.181-.62zM225.13 49.416c-1.422.887-2.24 2.067-2.413 3.764-.12 1.224-.155 4.023 1.077 4.712.293.164.604-.224.362-.473-.792-.801-.861-2.964-.801-3.98.086-1.56.741-2.748 1.982-3.679.198-.146.017-.482-.207-.344zM246.993 54.266c-.732-1.267-2.602-2.386-4.042-1.585-.224.129-.12.474.13.474.629.008 1.206-.07 1.818.12.698.215 1.284.62 1.698 1.215.172.241.543.034.396-.224z" fill="#0C2340"/><path d="M151.096 185.68c9.144 3.36 17.08 13.835 15.253 21.459-2.059 8.606-7.997 12.319-7.997 12.319l-1.87-3.455s4.749-7.417 4.335-10.923c-.664-5.608-7.747-9.364-7.747-9.364l-1.974-10.036z" fill="#0B43A4"/><path d="M128.596 282.783s-5.61 2.266-7.015 3.55l11.117-.026-.009-3.532-4.093.008zM153.165 282.568s1.594 1.843 1.887 3.696l-7.584.017c.13-1.275.673-2.507 1.414-3.705l4.283-.008z" fill="#0C2340"/><path d="M153.63 282.732l-5.179.008c.103-6.099-1.155-26.886-2.37-42.426-.715-9.114-1.422-16.437-1.836-17.918l2.775-.612 10.471-2.326c1.792 8.184-2.344 45.76-3.861 63.274z" fill="#047F76"/><path d="M134.594 222.068c-4.042 6.358-5.085 52.325-6.774 60.844l4.912.276s5.645-28.979 17.658-61.559l-15.796.439z" fill="#009790"/><path opacity=".2" d="M152.458 221.629a420.735 420.735 0 00-6.377 18.684c-.715-9.114-1.422-16.436-1.836-17.918l2.775-.611 5.438-.155z" fill="#5275A0"/><path d="M134.594 222.068c-4.042 6.358-5.085 52.325-6.774 60.844l4.912.276s5.645-28.979 17.658-61.559l-15.796.439z" fill="#009790"/><path d="M137.679 170.751s-3.146 11.975 4.714 11.966l-.466 3.058 5.964.655-1.293-4.264s1.181-7.529 1.258-8.89c.147-2.542-6.972-7.013-10.177-2.525z" fill="#FFB9A3"/><path d="M118.254 157.328l-2.318.005.019 9.777 2.318-.004-.019-9.778z" fill="#0C2340"/><path d="M123.735 157.313l-13.288.026c-.931 0-1.689-.75-1.689-1.68v-.345c0-.93.75-1.688 1.681-1.688l13.288-.026c.931 0 1.689.749 1.689 1.68v.344a1.679 1.679 0 01-1.681 1.689z" fill="#0056EC"/><path d="M115.316 169.657c-.06-2.214-1.896-1.636-.888-5.254.621-2.24 5.249.361 4.671 1.912-.577 1.551-1.241 4.006-1.241 4.006l-2.542-.664z" fill="#FFB9A3"/><path d="M142.444 185.077c-11.745.776-12.521 4.738-17.778 4.118-7.781-.913-6.42-15.36-5.455-20.537l-4.645.009s-8.376 32.898 18.08 26.817c-1.017 5.763 5.567 15.178-.819 26.601 10.04 2.731 19.416 3.394 27.439-.051-1.405-1.896 2.878-21.011-5.507-34.769-1.637-2.696-10.453-2.248-11.315-2.188z" fill="#0056EC"/><path d="M142.444 185.077c-11.745.776-12.521 4.738-17.778 4.118-7.781-.913-6.42-15.36-5.455-20.537l-4.645.009s-8.376 32.898 18.08 26.817c-1.017 5.763 5.567 15.178-.819 26.601 10.04 2.731 19.416 3.394 27.439-.051-1.405-1.896 2.878-21.011-5.507-34.769-1.637-2.696-10.453-2.248-11.315-2.188z" fill="#0056EC"/><path d="M140.824 173.051c.767.199 1.655.345 2.068.991.268.422.25.948.225 1.439.137-.517.715-.888 1.258-.819.551.061 1.017.552 1.025 1.086.009.25-.077.491-.172.723a9.27 9.27 0 01-.871 1.663c.957.353 1.767 3.162 2.241 4.032 1.612-.405 5.205-1.792 5.515-7.504.147-2.662-.663-5.849-3.55-7.615-2.043-1.249-5.421-1.266-7.756-.672-1.896.483-4.912 2.378-3.507 4.583.706 1.111 2.257 1.766 3.524 2.093z" fill="#EF832B"/><path d="M150.889 169.416c1.095-.362 2.482-.172 3.137.741.509.715.466 1.645.629 2.498.078.414.224.827.543 1.111.379.336.931.423 1.448.448 1.267.069 2.542-.094 3.792.121 1.249.215 2.525.913 2.878 2.076.198.646.086 1.353.328 1.981.353.948 1.361 1.491 2.24 2.042a14.588 14.588 0 014.611 4.592c.732 1.163 1.292 2.455 1.378 3.807.087 1.353 1.069 3.144.802 4.471-.285 1.439-1.698 3.386-4.49 4.282-4.826 1.55-6.36 2.222-10.987-.526-.561-.327-1.646-1.456-2.155-1.861-.396-.318-.646-.775-.784-1.249-.388-1.326.06-2.756.75-3.962.689-1.207 1.628-2.275 2.335-3.472.422-.724.767-1.525.733-2.352-.018-.31-.095-.629-.319-.853-.198-.189-.474-.284-.75-.336-1.017-.198-2.137.009-3.051-.448-.896-.439-1.387-1.524-1.111-2.455.181-.62.655-1.146.784-1.774.189-.914-.379-1.844-1.172-2.378-.793-.534-1.767-.741-2.723-.896-.474-.077-.965-.155-1.345-.431-.474-.336-.689-.93-.68-1.49.034-1.792 1.49-3.127 3.179-3.687z" fill="#EF832B"/><path d="M150.019 174.232c5.808 1.257-1.525 6.762 1.551 9.398.879.75 1.896.517 2.922.655 3.947.543 1.784 3.222 1.516 5.324-.043.318.483.379.552.077.336-1.447 1.663-3.222.982-4.764-.603-1.361-2.102-1.197-3.335-1.24-1.542-.043-3.24 0-2.663-3.058.13-.681.673-1.37.94-2.016.301-.741.508-1.473.345-2.283-.285-1.37-1.422-2.171-2.732-2.386-.19-.043-.276.25-.078.293zM138.049 167.116c4.482-2.274 8.946-1.818 12.729 1.516.258.224.603-.121.379-.379-3.318-3.739-9.221-4.393-13.228-1.352-.129.103-.026.292.12.215z" fill="#EF832B"/><path d="M288.564 181.166l-1.939 3.911 4.74 1.939.509-4.497-3.31-1.353z" fill="#FFB9A3"/><path d="M291.425 168.46c-10.763 4.686-6.351 16.04.199 14.705 3.188-.646 4.8-10.915 4.8-10.915l-4.999-3.79z" fill="#FFB9A3"/><path d="M295.002 166.849c-.354-.655-.69-1.361-1.276-1.826-.586-.466-1.508-.621-2.051-.112-.724.671-.301 1.929.431 2.592-.629.078-1.379-.361-1.844.078-.353.327-.233.913-.026 1.353a5.967 5.967 0 002.206 2.524c-.543.31-1.18.913-.853 1.447.095.146.241.25.336.396.207.345.009.793-.207 1.137a20.47 20.47 0 01-1.094 1.628c.371-.508 1.275-.301 1.543.267.267.569.034 1.267-.388 1.732-.233.258-.526.474-.871.551-.293.069-1.602 4.101-.586 4.893 1.259.974 5.533.13 6.153-.973.621.672 1.526 1.18 2.422.999.896-.181 1.577-1.283 1.094-2.059.965.353 2.146.043 2.81-.749.663-.793.758-2.007.232-2.895.526-.155.638-.87.5-1.404-.276-1.077-1.155-1.99-2.232-2.291.543.008.974-.543 1-1.086.026-.542-.259-1.059-.603-1.481-1.009-1.25-2.206-1.577-3.697-1.766-1.5-.181-2.327-1.715-2.999-2.955z" fill="#4A49CA"/><path d="M284.919 282.042s-6.299 3.024-7.144 3.963c0 0 12.392.56 13.366-.026.974-.586-1.982-3.945-1.982-3.945l-4.24.008zM308.35 278.622s-5.532 4.265-6.17 5.359c0 0 13.064-1.939 13.064-2.791 0-.853-2.757-3.455-2.757-3.455l-4.137.887z" fill="#0C2340"/><path d="M291.003 223.662c-.233 1.283-8.859 35.311 15.822 55.718l7.144-1.636s-8.316-7.797-12.237-21.838c-3.706-13.275-.767-14.576 1.456-21.881 2.465-8.089.63-13.964.63-13.964l-12.815 3.601z" fill="#D8742A"/><path d="M279.214 223.558c-3.912 9.347-10.625 41.195 4.007 59.122l7.308-.017s-5.756-6.306-6.403-20.942c-.646-14.636 3.077-21.063 5.705-25.887 2.629-4.833 5.059-13.034 5.059-13.034l-15.676.758z" fill="#EF832B"/><path d="M274.061 165.626c-1.939 6.84-2.577 19.486 7.144 24.577l6.506-1.585s-11.737-6.151-9.221-21.691l-4.429-1.301z" fill="#0B43A4"/><path d="M256.128 162.128l5.05-.62s-.612 21.209 23.896 23.001c18.709 1.361 20.174 36.456 20.174 36.456-6.032 4.058-16.149 5.289-29.119 4.359 0 0 .828-25.034-1.232-31.891 0-.008-20.363-6.409-18.769-31.305z" fill="#0056EC"/><path d="M249.949 158.278c-.853.99 2.714 2.248 6.179 3.85l4.438-.542s.052-.888 0-1.81c-.052-.921-.517-1.447-1.043-.654-.526.792-2.766 1.059-3.826.336-1.069-.733-4.895-2.171-5.748-1.18zM274.061 165.626c-1.629-1.594-1.189-1.499-1.189-1.499l4.955 1.12s1.086-2.421 2.016-2.481c.922-.069-.698 1.662-.327 2.308.37.646-1.017 1.861-1.017 1.861l-4.438-1.309z" fill="#FFB9A3"/><path d="M297.785 169.184c1.017.258 2.051.361 2.896 1.059.836.689 1.215 1.87.612 2.826-.285.448.387.801.689.405.767-1.008.56-2.387-.215-3.343-.897-1.094-2.56-1.55-3.921-1.404-.242.026-.328.388-.061.457zM302.266 178.375c.673.397 1.233 1.034.948 1.87-.267.766-1.042 1.223-1.672 1.662-.301.216-.043.672.293.5.931-.491 1.914-1.18 2.06-2.317.129-.991-.534-1.741-1.362-2.189-.301-.155-.56.293-.267.474zM290.951 183.509c2.284 1.422 5.516 1.189 7.403-.809.233-.25-.086-.715-.379-.491-2.068 1.533-4.412 2.024-6.834.982-.215-.095-.396.189-.19.318z" fill="#4A49CA"/><path d="M302.568 170.682c1.31 1.249 0 2.955-.845 4.023-.189.233.104.552.337.336.749-.698 1.499-1.473 1.603-2.541.077-.81-.259-1.576-.974-1.973-.095-.051-.207.078-.121.155z" fill="#4A49CA"/><path d="M156.793 13.312l-2.017-4.936L174.278.968l-17.485 12.344z" fill="#0B43A4"/><path d="M157.775 10.263L174.278.968l-11.487 11.664-5.016-2.37zM150.312 6.36L174.278.968l-19.502 7.408-4.464-2.016z" fill="#5193F4"/><path d="M157.775 10.263l-.982 3.05 2.981-2.103-1.999-.947z" fill="#0056EC"/><path d="M154.5 12.649c-5.093-.861-12.004 4.29-9.031 9.648 1.008 1.827 6.231 1.034 5.843-.982-.19-.965-1.37-1.378-2.344-1.266-5.688.655-5.92 5.418-5.662 6.633 1.301 6.271 10.919 4.152 14.15 3.265" stroke="#C8DBFB" stroke-miterlimit="10" stroke-linecap="round" stroke-linejoin="round" stroke-dasharray="4 4"/></svg>